<svg width="16" height="16" viewBox="0 0 16 16" fill="none" xmlns="http://www.w3.org/2000/svg">
<path d="M9.50791 2.39974C8.79711 1.68891 8.44171 1.3335 8.00004 1.3335C7.55837 1.3335 7.20297 1.68891 6.49214 2.39974C6.06559 2.8263 5.64289 3.02434 5.03476 3.02434C4.50377 3.02434 3.74833 2.92135 3.33337 3.33979C2.9217 3.75492 3.02423 4.50726 3.02423 5.03487C3.02423 5.64302 2.82617 6.06571 2.39961 6.49228C1.68879 7.2031 1.33338 7.5585 1.33337 8.00016C1.33339 8.44176 1.6888 8.79723 2.39963 9.50803C2.87748 9.9859 3.02423 10.2944 3.02423 10.9654C3.02423 11.4964 2.92125 12.2519 3.3397 12.6668C3.75483 13.0785 4.50716 12.976 5.03475 12.976C5.68237 12.976 5.99423 13.1026 6.45642 13.5648C6.84997 13.9584 7.37757 14.6668 8.00004 14.6668C8.62251 14.6668 9.15011 13.9584 9.54364 13.5648C10.0058 13.1026 10.3177 12.976 10.9653 12.976C11.4929 12.976 12.2452 13.0785 12.6604 12.6668M12.6604 12.6668C13.0788 12.2519 12.9758 11.4964 12.9758 10.9654C12.9758 10.2944 13.1226 9.9859 13.6004 9.50803C14.3113 8.79723 14.6667 8.44176 14.6667 8.00016C14.6667 7.5585 14.3113 7.2031 13.6004 6.49228M12.6604 12.6668H12.6667" stroke="#937A62" stroke-width="1.2" stroke-linecap="round" stroke-linejoin="round"/>
<path d="M5.33337 6.87196C5.33337 6.87196 6.83337 6.66683 8.00004 9.3335C8.00004 9.3335 11.3726 2.66683 14.6667 1.3335" stroke="#937A62" stroke-width="1.2" stroke-linecap="round" stroke-linejoin="round"/>
</svg>
