<svg width="64" height="64" viewBox="0 0 64 64" fill="none" xmlns="http://www.w3.org/2000/svg">
<rect x="0.5" y="0.5" width="63" height="63" rx="31.5" fill="#F8F9FC"/>
<rect x="0.5" y="0.5" width="63" height="63" rx="31.5" stroke="#E8E8F3"/>
<g filter="url(#filter0_d_286_36)">
<rect x="10" y="10" width="44" height="44" rx="22" fill="#232343" shape-rendering="crispEdges"/>
<path d="M33.1735 35.8902C33.1735 35.8902 33.6943 35.8902 34.2152 37.0013C34.2152 37.0013 35.8696 34.2236 37.3402 33.668" stroke="#FFF847" stroke-width="1.5" stroke-linecap="round" stroke-linejoin="round"/>
<path d="M36.1195 27.8345H36.127" stroke="#FFF847" stroke-width="2" stroke-linecap="round" stroke-linejoin="round"/>
<path d="M31.9528 27.8345H31.9603" stroke="#FFF847" stroke-width="2" stroke-linecap="round" stroke-linejoin="round"/>
<path d="M27.7861 27.8345H27.7936" stroke="#FFF847" stroke-width="2" stroke-linecap="round" stroke-linejoin="round"/>
<path d="M28.5766 31.9738H26.1737C24.7891 31.9738 23.6667 30.8546 23.6667 29.4738V26.1655C23.6667 24.7848 24.7891 23.6655 26.1737 23.6655H37.8263C39.2109 23.6655 40.3333 24.7848 40.3333 26.1655V29.6079" stroke="#FFF847" stroke-width="1.5" stroke-linecap="round" stroke-linejoin="round"/>
<path d="M40.333 35.3345C40.333 32.5731 38.0881 30.3345 35.3189 30.3345C32.5497 30.3345 30.3048 32.5731 30.3048 35.3345C30.3048 38.0959 32.5497 40.3345 35.3189 40.3345C38.0881 40.3345 40.333 38.0959 40.333 35.3345Z" stroke="#FFF847" stroke-width="1.5" stroke-linecap="round"/>
</g>
<defs>
<filter id="filter0_d_286_36" x="4" y="8" width="56" height="56" filterUnits="userSpaceOnUse" color-interpolation-filters="sRGB">
<feFlood flood-opacity="0" result="BackgroundImageFix"/>
<feColorMatrix in="SourceAlpha" type="matrix" values="0 0 0 0 0 0 0 0 0 0 0 0 0 0 0 0 0 0 127 0" result="hardAlpha"/>
<feOffset dy="4"/>
<feGaussianBlur stdDeviation="3"/>
<feComposite in2="hardAlpha" operator="out"/>
<feColorMatrix type="matrix" values="0 0 0 0 0.3264 0 0 0 0 0.3264 0 0 0 0 0.6336 0 0 0 0.64 0"/>
<feBlend mode="normal" in2="BackgroundImageFix" result="effect1_dropShadow_286_36"/>
<feBlend mode="normal" in="SourceGraphic" in2="effect1_dropShadow_286_36" result="shape"/>
</filter>
</defs>
</svg>
