<svg width="64" height="64" viewBox="0 0 64 64" fill="none" xmlns="http://www.w3.org/2000/svg">
<rect x="0.5" y="0.5" width="63" height="63" rx="31.5" fill="#F8F9FC"/>
<rect x="0.5" y="0.5" width="63" height="63" rx="31.5" stroke="#E8E8F3"/>
<g filter="url(#filter0_d_286_11)">
<rect x="10" y="10" width="44" height="44" rx="22" fill="#232343" shape-rendering="crispEdges"/>
<path d="M32 23.6665C36.6023 23.6665 40.3333 27.3975 40.3333 31.9998C40.3333 36.6022 36.6023 40.3332 32 40.3332C27.3976 40.3332 23.6667 36.6022 23.6667 31.9998C23.6667 30.4928 24.0667 29.079 24.7665 27.8592" stroke="#FFF847" stroke-width="1.5" stroke-linecap="round" stroke-linejoin="round"/>
<path d="M26.1667 31.9998C26.1667 35.2215 28.7783 37.8332 32 37.8332C35.2217 37.8332 37.8333 35.2215 37.8333 31.9998C37.8333 28.7782 35.2217 26.1665 32 26.1665" stroke="#FFF847" stroke-width="1.5" stroke-linecap="round" stroke-linejoin="round"/>
<path d="M32 35.3332C33.8409 35.3332 35.3333 33.8408 35.3333 31.9998C35.3333 30.1589 33.8409 28.6665 32 28.6665" stroke="#FFF847" stroke-width="1.5" stroke-linecap="round" stroke-linejoin="round"/>
</g>
<defs>
<filter id="filter0_d_286_11" x="4" y="8" width="56" height="56" filterUnits="userSpaceOnUse" color-interpolation-filters="sRGB">
<feFlood flood-opacity="0" result="BackgroundImageFix"/>
<feColorMatrix in="SourceAlpha" type="matrix" values="0 0 0 0 0 0 0 0 0 0 0 0 0 0 0 0 0 0 127 0" result="hardAlpha"/>
<feOffset dy="4"/>
<feGaussianBlur stdDeviation="3"/>
<feComposite in2="hardAlpha" operator="out"/>
<feColorMatrix type="matrix" values="0 0 0 0 0.3264 0 0 0 0 0.3264 0 0 0 0 0.6336 0 0 0 0.64 0"/>
<feBlend mode="normal" in2="BackgroundImageFix" result="effect1_dropShadow_286_11"/>
<feBlend mode="normal" in="SourceGraphic" in2="effect1_dropShadow_286_11" result="shape"/>
</filter>
</defs>
</svg>
