<svg width="28" height="18" viewBox="0 0 28 18" fill="none" xmlns="http://www.w3.org/2000/svg">
<mask id="path-1-outside-1_211_2323" maskUnits="userSpaceOnUse" x="-1" y="-0.5" width="30" height="19" fill="black">
<rect fill="white" x="-1" y="-0.5" width="30" height="19"/>
<path d="M8.752 17.776C3.83 17.776 0.0120001 14.004 0.0120001 8.921C0.0120001 3.815 3.692 0.0889993 8.66 0.0889993C12.363 0.0889993 15.1 2.136 15.997 4.666L12.846 6.184C12.248 4.528 10.73 3.309 8.66 3.309C5.624 3.309 3.577 5.586 3.577 8.921C3.577 12.279 5.716 14.556 8.752 14.556C11.098 14.556 13.237 13.153 13.237 10.761V10.715H8.66V7.725H16.802V9.542C16.802 15.154 12.685 17.776 8.752 17.776ZM23.6954 7.38V5.655C24.7764 5.402 25.4894 4.712 25.6964 3.815H24.1554V0.364999H27.6054V2.366C27.6054 5.057 26.2714 6.851 23.6954 7.38ZM18.6354 7.38V5.655C19.7164 5.402 20.4294 4.712 20.6364 3.815H19.0954V0.364999H22.5454V2.366C22.5454 5.057 21.2114 6.851 18.6354 7.38Z"/>
</mask>
<path d="M8.752 17.776C3.83 17.776 0.0120001 14.004 0.0120001 8.921C0.0120001 3.815 3.692 0.0889993 8.66 0.0889993C12.363 0.0889993 15.1 2.136 15.997 4.666L12.846 6.184C12.248 4.528 10.73 3.309 8.66 3.309C5.624 3.309 3.577 5.586 3.577 8.921C3.577 12.279 5.716 14.556 8.752 14.556C11.098 14.556 13.237 13.153 13.237 10.761V10.715H8.66V7.725H16.802V9.542C16.802 15.154 12.685 17.776 8.752 17.776ZM23.6954 7.38V5.655C24.7764 5.402 25.4894 4.712 25.6964 3.815H24.1554V0.364999H27.6054V2.366C27.6054 5.057 26.2714 6.851 23.6954 7.38ZM18.6354 7.38V5.655C19.7164 5.402 20.4294 4.712 20.6364 3.815H19.0954V0.364999H22.5454V2.366C22.5454 5.057 21.2114 6.851 18.6354 7.38Z" fill="#373758"/>
<path d="M15.997 4.666L16.1706 5.02636L16.4939 4.8706L16.374 4.53233L15.997 4.666ZM12.846 6.184L12.4698 6.31986L12.6203 6.73672L13.0196 6.54436L12.846 6.184ZM13.237 10.715H13.637V10.315H13.237V10.715ZM8.66 10.715H8.26V11.115H8.66V10.715ZM8.66 7.725V7.325H8.26V7.725H8.66ZM16.802 7.725H17.202V7.325H16.802V7.725ZM8.752 17.376C4.05298 17.376 0.412 13.7852 0.412 8.921H-0.388C-0.388 14.2228 3.60702 18.176 8.752 18.176V17.376ZM0.412 8.921C0.412 4.02891 3.91985 0.488999 8.66 0.488999V-0.311001C3.46415 -0.311001 -0.388 3.60109 -0.388 8.921H0.412ZM8.66 0.488999C12.2159 0.488999 14.7867 2.44937 15.62 4.79966L16.374 4.53233C15.4133 1.82263 12.5101 -0.311001 8.66 -0.311001V0.488999ZM15.8234 4.30564L12.6724 5.82364L13.0196 6.54436L16.1706 5.02636L15.8234 4.30564ZM13.2222 6.04814C12.5693 4.24006 10.9053 2.909 8.66 2.909V3.709C10.5547 3.709 11.9267 4.81594 12.4698 6.31986L13.2222 6.04814ZM8.66 2.909C7.03633 2.909 5.65518 3.52077 4.68324 4.59617C3.71444 5.6681 3.177 7.17229 3.177 8.921H3.977C3.977 7.33471 4.46306 6.0329 5.27676 5.13258C6.08732 4.23573 7.24767 3.709 8.66 3.709V2.909ZM3.177 8.921C3.177 10.6852 3.7399 12.1958 4.73228 13.2693C5.7267 14.345 7.12922 14.956 8.752 14.956V14.156C7.33879 14.156 6.1538 13.6285 5.31973 12.7262C4.4836 11.8217 3.977 10.5148 3.977 8.921H3.177ZM8.752 14.956C11.2232 14.956 13.637 13.4588 13.637 10.761H12.837C12.837 12.8472 10.9728 14.156 8.752 14.156V14.956ZM13.637 10.761V10.715H12.837V10.761H13.637ZM13.237 10.315H8.66V11.115H13.237V10.315ZM9.06 10.715V7.725H8.26V10.715H9.06ZM8.66 8.125H16.802V7.325H8.66V8.125ZM16.402 7.725V9.542H17.202V7.725H16.402ZM16.402 9.542C16.402 12.2418 15.4158 14.189 13.9856 15.465C12.5475 16.7482 10.6338 17.376 8.752 17.376V18.176C10.8032 18.176 12.9145 17.4928 14.5182 16.062C16.1297 14.624 17.202 12.4542 17.202 9.542H16.402ZM23.6954 7.38H23.2954V7.87049L23.7758 7.77182L23.6954 7.38ZM23.6954 5.655L23.6042 5.26552L23.2954 5.33781V5.655H23.6954ZM25.6964 3.815L26.0861 3.90494L26.1992 3.415H25.6964V3.815ZM24.1554 3.815H23.7554V4.215H24.1554V3.815ZM24.1554 0.364999V-0.0350015H23.7554V0.364999H24.1554ZM27.6054 0.364999H28.0054V-0.0350015H27.6054V0.364999ZM18.6354 7.38H18.2354V7.87049L18.7158 7.77182L18.6354 7.38ZM18.6354 5.655L18.5442 5.26552L18.2354 5.33781V5.655H18.6354ZM20.6364 3.815L21.0261 3.90494L21.1392 3.415H20.6364V3.815ZM19.0954 3.815H18.6954V4.215H19.0954V3.815ZM19.0954 0.364999V-0.0350015H18.6954V0.364999H19.0954ZM22.5454 0.364999H22.9454V-0.0350015H22.5454V0.364999ZM24.0954 7.38V5.655H23.2954V7.38H24.0954ZM23.7865 6.04447C24.9929 5.76212 25.8398 4.97231 26.0861 3.90494L25.3066 3.72506C25.1389 4.45169 24.5598 5.04188 23.6042 5.26552L23.7865 6.04447ZM25.6964 3.415H24.1554V4.215H25.6964V3.415ZM24.5554 3.815V0.364999H23.7554V3.815H24.5554ZM24.1554 0.764999H27.6054V-0.0350015H24.1554V0.764999ZM27.2054 0.364999V2.366H28.0054V0.364999H27.2054ZM27.2054 2.366C27.2054 3.64618 26.8886 4.67487 26.2995 5.43966C25.7125 6.20173 24.8262 6.73942 23.6149 6.98818L23.7758 7.77182C25.1405 7.49158 26.2092 6.86777 26.9332 5.92784C27.6552 4.99063 28.0054 3.77682 28.0054 2.366H27.2054ZM19.0354 7.38V5.655H18.2354V7.38H19.0354ZM18.7265 6.04447C19.9329 5.76212 20.7798 4.97231 21.0261 3.90494L20.2466 3.72506C20.0789 4.45169 19.4998 5.04188 18.5442 5.26552L18.7265 6.04447ZM20.6364 3.415H19.0954V4.215H20.6364V3.415ZM19.4954 3.815V0.364999H18.6954V3.815H19.4954ZM19.0954 0.764999H22.5454V-0.0350015H19.0954V0.764999ZM22.1454 0.364999V2.366H22.9454V0.364999H22.1454ZM22.1454 2.366C22.1454 3.64618 21.8286 4.67487 21.2395 5.43966C20.6525 6.20173 19.7662 6.73942 18.5549 6.98818L18.7158 7.77182C20.0805 7.49158 21.1492 6.86777 21.8732 5.92784C22.5952 4.99063 22.9454 3.77682 22.9454 2.366H22.1454Z" fill="#373758" mask="url(#path-1-outside-1_211_2323)"/>
</svg>
