<svg width="30" height="19" viewBox="0 0 30 19" fill="none" xmlns="http://www.w3.org/2000/svg">
<mask id="mask0_2320_133" style="mask-type:luminance" maskUnits="userSpaceOnUse" x="0" y="0" width="30" height="19">
<path d="M30 0H0V19H30V0Z" fill="white"/>
<path d="M9.75221 18.2759C4.83021 18.2759 1.01221 14.5039 1.01221 9.42087C1.01221 4.31487 4.69221 0.588867 9.66021 0.588867C13.3632 0.588867 16.1002 2.63587 16.9972 5.16587L13.8462 6.68387C13.2482 5.02787 11.7302 3.80887 9.66021 3.80887C6.62421 3.80887 4.57721 6.08587 4.57721 9.42087C4.57721 12.7789 6.71621 15.0559 9.75221 15.0559C12.0982 15.0559 14.2372 13.6529 14.2372 11.2609V11.2149H9.66021V8.22487H17.8022V10.0419C17.8022 15.6539 13.6852 18.2759 9.75221 18.2759ZM24.6956 7.87987V6.15487C25.7766 5.90187 26.4896 5.21187 26.6966 4.31487H25.1556V0.864867H28.6056V2.86587C28.6056 5.55687 27.2716 7.35087 24.6956 7.87987ZM19.6356 7.87987V6.15487C20.7166 5.90187 21.4296 5.21187 21.6366 4.31487H20.0956V0.864867H23.5456V2.86587C23.5456 5.55687 22.2116 7.35087 19.6356 7.87987Z" fill="black"/>
</mask>
<g mask="url(#mask0_2320_133)">
<path d="M16.9968 5.16645L17.1704 5.52681L17.4937 5.37105L17.3738 5.03278L16.9968 5.16645ZM13.8458 6.68445L13.4696 6.82031L13.6201 7.23717L14.0194 7.04481L13.8458 6.68445ZM14.2368 11.2155H14.6368V10.8155H14.2368V11.2155ZM9.65982 11.2155H9.25982V11.6155H9.65982V11.2155ZM9.65982 8.22545V7.82545H9.25982V8.22545H9.65982ZM17.8018 8.22545H18.2018V7.82545H17.8018V8.22545ZM9.75182 17.8765C5.0528 17.8765 1.41182 14.2857 1.41182 9.42145H0.611816C0.611816 14.7233 4.60684 18.6765 9.75182 18.6765V17.8765ZM1.41182 9.42145C1.41182 4.52936 4.91967 0.989453 9.65982 0.989453V0.189453C4.46397 0.189453 0.611816 4.10154 0.611816 9.42145H1.41182ZM9.65982 0.989453C13.2157 0.989453 15.7865 2.94982 16.6198 5.30011L17.3738 5.03278C16.4131 2.32308 13.5099 0.189453 9.65982 0.189453V0.989453ZM16.8232 4.80609L13.6722 6.32409L14.0194 7.04481L17.1704 5.52681L16.8232 4.80609ZM14.222 6.54859C13.5691 4.74051 11.9051 3.40945 9.65982 3.40945V4.20945C11.5545 4.20945 12.9265 5.31639 13.4696 6.82031L14.222 6.54859ZM9.65982 3.40945C8.03615 3.40945 6.655 4.02122 5.68306 5.09662C4.71426 6.16855 4.17682 7.67274 4.17682 9.42145H4.97682C4.97682 7.83516 5.46288 6.53335 6.27658 5.63303C7.08714 4.73618 8.24749 4.20945 9.65982 4.20945V3.40945ZM4.17682 9.42145C4.17682 11.1857 4.73972 12.6963 5.7321 13.7698C6.72652 14.8455 8.12904 15.4565 9.75182 15.4565V14.6565C8.33861 14.6565 7.15362 14.129 6.31955 13.2267C5.48342 12.3222 4.97682 11.0153 4.97682 9.42145H4.17682ZM9.75182 15.4565C12.223 15.4565 14.6368 13.9593 14.6368 11.2615H13.8368C13.8368 13.3477 11.9726 14.6565 9.75182 14.6565V15.4565ZM14.6368 11.2615V11.2155H13.8368V11.2615H14.6368ZM14.2368 10.8155H9.65982V11.6155H14.2368V10.8155ZM10.0598 11.2155V8.22545H9.25982V11.2155H10.0598ZM9.65982 8.62545H17.8018V7.82545H9.65982V8.62545ZM17.4018 8.22545V10.0425H18.2018V8.22545H17.4018ZM17.4018 10.0425C17.4018 12.7423 16.4156 14.6895 14.9854 15.9655C13.5473 17.2487 11.6336 17.8765 9.75182 17.8765V18.6765C11.803 18.6765 13.9143 17.9933 15.518 16.5625C17.1295 15.1245 18.2018 12.9547 18.2018 10.0425H17.4018ZM24.6952 7.88045H24.2952V8.37094L24.7756 8.27227L24.6952 7.88045ZM24.6952 6.15545L24.604 5.76597L24.2952 5.83826V6.15545H24.6952ZM26.6962 4.31545L27.0859 4.40539L27.199 3.91545H26.6962V4.31545ZM25.1552 4.31545H24.7552V4.71545H25.1552V4.31545ZM25.1552 0.865453V0.465453H24.7552V0.865453H25.1552ZM28.6052 0.865453H29.0052V0.465453H28.6052V0.865453ZM19.6352 7.88045H19.2352V8.37094L19.7156 8.27227L19.6352 7.88045ZM19.6352 6.15545L19.544 5.76597L19.2352 5.83826V6.15545H19.6352ZM21.6362 4.31545L22.0259 4.40539L22.139 3.91545H21.6362V4.31545ZM20.0952 4.31545H19.6952V4.71545H20.0952V4.31545ZM20.0952 0.865453V0.465453H19.6952V0.865453H20.0952ZM23.5452 0.865453H23.9452V0.465453H23.5452V0.865453ZM25.0952 7.88045V6.15545H24.2952V7.88045H25.0952ZM24.7863 6.54492C25.9927 6.26257 26.8396 5.47276 27.0859 4.40539L26.3064 4.22551C26.1387 4.95214 25.5596 5.54233 24.604 5.76597L24.7863 6.54492ZM26.6962 3.91545H25.1552V4.71545H26.6962V3.91545ZM25.5552 4.31545V0.865453H24.7552V4.31545H25.5552ZM25.1552 1.26545H28.6052V0.465453H25.1552V1.26545ZM28.2052 0.865453V2.86645H29.0052V0.865453H28.2052ZM28.2052 2.86645C28.2052 4.14663 27.8884 5.17532 27.2993 5.94011C26.7123 6.70218 25.826 7.23987 24.6147 7.48863L24.7756 8.27227C26.1403 7.99203 27.209 7.36822 27.933 6.42829C28.655 5.49108 29.0052 4.27727 29.0052 2.86645H28.2052ZM20.0352 7.88045V6.15545H19.2352V7.88045H20.0352ZM19.7263 6.54492C20.9327 6.26257 21.7796 5.47276 22.0259 4.40539L21.2464 4.22551C21.0787 4.95214 20.4996 5.54233 19.544 5.76597L19.7263 6.54492ZM21.6362 3.91545H20.0952V4.71545H21.6362V3.91545ZM20.4952 4.31545V0.865453H19.6952V4.31545H20.4952ZM20.0952 1.26545H23.5452V0.465453H20.0952V1.26545ZM23.1452 0.865453V2.86645H23.9452V0.865453H23.1452ZM23.1452 2.86645C23.1452 4.14663 22.8284 5.17532 22.2393 5.94011C21.6523 6.70218 20.766 7.23987 19.5547 7.48863L19.7156 8.27227C21.0803 7.99203 22.149 7.36822 22.873 6.42829C23.595 5.49108 23.9452 4.27727 23.9452 2.86645H23.1452Z" fill="#373758"/>
</g>
<path d="M9.75221 18.2759C4.83021 18.2759 1.01221 14.5039 1.01221 9.42087C1.01221 4.31487 4.69221 0.588867 9.66021 0.588867C13.3632 0.588867 16.1002 2.63587 16.9972 5.16587L13.8462 6.68387C13.2482 5.02787 11.7302 3.80887 9.66021 3.80887C6.62421 3.80887 4.57721 6.08587 4.57721 9.42087C4.57721 12.7789 6.71621 15.0559 9.75221 15.0559C12.0982 15.0559 14.2372 13.6529 14.2372 11.2609V11.2149H9.66021V8.22487H17.8022V10.0419C17.8022 15.6539 13.6852 18.2759 9.75221 18.2759ZM24.6956 7.87987V6.15487C25.7766 5.90187 26.4896 5.21187 26.6966 4.31487H25.1556V0.864867H28.6056V2.86587C28.6056 5.55687 27.2716 7.35087 24.6956 7.87987ZM19.6356 7.87987V6.15487C20.7166 5.90187 21.4296 5.21187 21.6366 4.31487H20.0956V0.864867H23.5456V2.86587C23.5456 5.55687 22.2116 7.35087 19.6356 7.87987Z" fill="#373758"/>
</svg>
