<svg width="20" height="20" viewBox="0 0 20 20" fill="none" xmlns="http://www.w3.org/2000/svg">
<rect width="20" height="20" rx="10" fill="#111722"/>
<g clip-path="url(#clip0_211_1887)">
<path d="M10 8.2525C9.0325 8.2525 8.2525 9.04 8.2525 10C8.2525 10.96 9.04 11.7475 10 11.7475C10.96 11.7475 11.7475 10.96 11.7475 10C11.7475 9.04 10.96 8.2525 10 8.2525ZM15.25 10C15.25 9.2725 15.25 8.56 15.2125 7.8325C15.175 6.9925 14.98 6.2425 14.365 5.635C13.75 5.02 13.0075 4.825 12.1675 4.7875C11.44 4.75 10.7275 4.75 10 4.75C9.2725 4.75 8.56 4.75 7.8325 4.7875C6.9925 4.825 6.2425 5.02 5.635 5.635C5.02 6.25 4.825 6.9925 4.7875 7.8325C4.75 8.56 4.75 9.2725 4.75 10C4.75 10.7275 4.75 11.44 4.7875 12.1675C4.825 13.0075 5.02 13.7575 5.635 14.365C6.25 14.98 6.9925 15.175 7.8325 15.2125C8.56 15.25 9.2725 15.25 10 15.25C10.7275 15.25 11.44 15.25 12.1675 15.2125C13.0075 15.175 13.7575 14.98 14.365 14.365C14.98 13.75 15.175 13.0075 15.2125 12.1675C15.2575 11.4475 15.25 10.7275 15.25 10ZM10 12.6925C8.5075 12.6925 7.3075 11.4925 7.3075 10C7.3075 8.5075 8.5075 7.3075 10 7.3075C11.4925 7.3075 12.6925 8.5075 12.6925 10C12.6925 11.4925 11.4925 12.6925 10 12.6925ZM12.805 7.825C12.46 7.825 12.175 7.5475 12.175 7.195C12.175 6.8425 12.4525 6.565 12.805 6.565C13.1575 6.565 13.435 6.8425 13.435 7.195C13.4369 7.27715 13.4219 7.35882 13.3909 7.43494C13.36 7.51105 13.3137 7.58 13.255 7.6375C13.1975 7.69621 13.1286 7.74247 13.0524 7.77344C12.9763 7.8044 12.8947 7.8194 12.8125 7.8175L12.805 7.825Z" fill="white"/>
</g>
<defs>
<clipPath id="clip0_211_1887">
<rect width="12" height="12" fill="white" transform="translate(4 4)"/>
</clipPath>
</defs>
</svg>
