<svg width="333" height="245" viewBox="0 0 333 245" fill="none" xmlns="http://www.w3.org/2000/svg">
<g clip-path="url(#clip0_211_2012)">
<path d="M46.1667 -175.801L-102.474 111.358" stroke="#E0D1C2" stroke-width="0.318257"/>
<path d="M104.955 -145.371L-43.686 141.788" stroke="#E0D1C2" stroke-width="0.318257"/>
<path d="M163.744 -114.94L15.1026 172.218" stroke="#E0D1C2" stroke-width="0.318257"/>
<path d="M222.532 -84.5098L73.8911 202.649" stroke="#E0D1C2" stroke-width="0.318257"/>
<path d="M281.32 -54.0796L132.679 233.079" stroke="#E0D1C2" stroke-width="0.318257"/>
<path d="M340.109 -23.6489L191.468 263.51" stroke="#E0D1C2" stroke-width="0.318257"/>
<path d="M398.897 6.78174L250.256 293.941" stroke="#E0D1C2" stroke-width="0.318257"/>
<path d="M457.686 37.2119L309.045 324.371" stroke="#E0D1C2" stroke-width="0.318257"/>
<path d="M-60.0846 184.546L281.34 361.277" stroke="#E0D1C2" stroke-width="0.318257"/>
<path d="M-46.0398 157.413L295.385 334.143" stroke="#E0D1C2" stroke-width="0.318257"/>
<path d="M-31.9949 130.28L309.43 307.01" stroke="#E0D1C2" stroke-width="0.318257"/>
<path d="M-17.9501 103.146L323.475 279.877" stroke="#E0D1C2" stroke-width="0.318257"/>
<path d="M-3.9053 76.0137L337.52 252.744" stroke="#E0D1C2" stroke-width="0.318257"/>
<path d="M10.1395 48.8804L351.565 225.611" stroke="#E0D1C2" stroke-width="0.318257"/>
<path d="M24.1843 21.7471L365.609 198.478" stroke="#E0D1C2" stroke-width="0.318257"/>
<path d="M38.2292 -5.38574L379.654 171.345" stroke="#E0D1C2" stroke-width="0.318257"/>
<path d="M52.274 -32.519L393.699 144.212" stroke="#E0D1C2" stroke-width="0.318257"/>
<path d="M66.3188 -59.6523L407.744 117.078" stroke="#E0D1C2" stroke-width="0.318257"/>
<path d="M80.3636 -86.7852L421.789 89.9455" stroke="#E0D1C2" stroke-width="0.318257"/>
<path d="M94.4085 -113.918L435.834 62.8122" stroke="#E0D1C2" stroke-width="0.318257"/>
<path d="M108.453 -141.052L449.878 35.6789" stroke="#E0D1C2" stroke-width="0.318257"/>
<path d="M122.498 -168.185L463.923 8.54612" stroke="#E0D1C2" stroke-width="0.318257"/>
<rect x="61.9517" y="69.249" width="11.4572" height="11.4572" rx="5.72862" transform="rotate(27.3673 61.9517 69.249)" fill="#FCF5ED"/>
<g filter="url(#filter0_d_211_2012)">
<circle cx="64.4059" cy="76.97" r="3.18257" transform="rotate(27.3673 64.4059 76.97)" fill="url(#paint0_linear_211_2012)"/>
<circle cx="64.4059" cy="76.97" r="2.86431" transform="rotate(27.3673 64.4059 76.97)" stroke="url(#paint1_linear_211_2012)" stroke-width="0.636513"/>
</g>
<path d="M65.1374 75.5567L64.7621 76.7022L65.9669 76.6607L64.8373 77.0815L65.6209 77.9975L64.5876 77.3767L64.36 78.5605L64.2011 77.3656L63.1337 77.9257L63.9689 77.0565L62.8654 76.5712L64.0657 76.6821L63.7571 75.5169L64.4188 76.5245L65.1374 75.5567Z" fill="#A18A72"/>
<rect x="179.529" y="130.11" width="11.4572" height="11.4572" rx="5.72862" transform="rotate(27.3673 179.529 130.11)" fill="#FCF5ED"/>
<g filter="url(#filter1_d_211_2012)">
<circle cx="181.983" cy="137.831" r="3.18257" transform="rotate(27.3673 181.983 137.831)" fill="url(#paint2_linear_211_2012)"/>
<circle cx="181.983" cy="137.831" r="2.86431" transform="rotate(27.3673 181.983 137.831)" stroke="url(#paint3_linear_211_2012)" stroke-width="0.636513"/>
</g>
<path d="M182.714 136.418L182.339 137.564L183.544 137.522L182.414 137.943L183.198 138.859L182.164 138.238L181.937 139.422L181.778 138.227L180.71 138.787L181.546 137.918L180.442 137.433L181.642 137.543L181.334 136.378L181.995 137.386L182.714 136.418Z" fill="#A18A72"/>
<rect x="297.105" y="190.971" width="11.4572" height="11.4572" rx="5.72862" transform="rotate(27.3673 297.105 190.971)" fill="#FCF5ED"/>
<g filter="url(#filter2_d_211_2012)">
<circle cx="299.559" cy="198.692" r="3.18257" transform="rotate(27.3673 299.559 198.692)" fill="url(#paint4_linear_211_2012)"/>
<circle cx="299.559" cy="198.692" r="2.86431" transform="rotate(27.3673 299.559 198.692)" stroke="url(#paint5_linear_211_2012)" stroke-width="0.636513"/>
</g>
<path d="M300.291 197.279L299.916 198.424L301.12 198.383L299.991 198.804L300.774 199.72L299.741 199.099L299.513 200.283L299.354 199.088L298.287 199.648L299.122 198.779L298.019 198.293L299.219 198.404L298.911 197.239L299.572 198.247L300.291 197.279Z" fill="#A18A72"/>
<path d="M82.6499 -168.743L489.647 41.9297L324.035 361.874L-82.9619 151.202L82.6499 -168.743Z" fill="url(#paint6_linear_211_2012)"/>
<path d="M82.6499 -168.743L489.647 41.9297L324.035 361.874L-82.9619 151.202L82.6499 -168.743Z" fill="url(#paint7_linear_211_2012)"/>
</g>
<defs>
<filter id="filter0_d_211_2012" x="60.9044" y="73.6593" width="7.00297" height="7.00321" filterUnits="userSpaceOnUse" color-interpolation-filters="sRGB">
<feFlood flood-opacity="0" result="BackgroundImageFix"/>
<feColorMatrix in="SourceAlpha" type="matrix" values="0 0 0 0 0 0 0 0 0 0 0 0 0 0 0 0 0 0 127 0" result="hardAlpha"/>
<feMorphology radius="0.318257" operator="dilate" in="SourceAlpha" result="effect1_dropShadow_211_2012"/>
<feOffset dy="0.190954"/>
<feComposite in2="hardAlpha" operator="out"/>
<feColorMatrix type="matrix" values="0 0 0 0 0.70624 0 0 0 0 0.7024 0 0 0 0 0.8176 0 0 0 1 0"/>
<feBlend mode="normal" in2="BackgroundImageFix" result="effect1_dropShadow_211_2012"/>
<feBlend mode="normal" in="SourceGraphic" in2="effect1_dropShadow_211_2012" result="shape"/>
</filter>
<filter id="filter1_d_211_2012" x="178.481" y="134.521" width="7.00297" height="7.00321" filterUnits="userSpaceOnUse" color-interpolation-filters="sRGB">
<feFlood flood-opacity="0" result="BackgroundImageFix"/>
<feColorMatrix in="SourceAlpha" type="matrix" values="0 0 0 0 0 0 0 0 0 0 0 0 0 0 0 0 0 0 127 0" result="hardAlpha"/>
<feMorphology radius="0.318257" operator="dilate" in="SourceAlpha" result="effect1_dropShadow_211_2012"/>
<feOffset dy="0.190954"/>
<feComposite in2="hardAlpha" operator="out"/>
<feColorMatrix type="matrix" values="0 0 0 0 0.70624 0 0 0 0 0.7024 0 0 0 0 0.8176 0 0 0 1 0"/>
<feBlend mode="normal" in2="BackgroundImageFix" result="effect1_dropShadow_211_2012"/>
<feBlend mode="normal" in="SourceGraphic" in2="effect1_dropShadow_211_2012" result="shape"/>
</filter>
<filter id="filter2_d_211_2012" x="296.058" y="195.381" width="7.00297" height="7.00321" filterUnits="userSpaceOnUse" color-interpolation-filters="sRGB">
<feFlood flood-opacity="0" result="BackgroundImageFix"/>
<feColorMatrix in="SourceAlpha" type="matrix" values="0 0 0 0 0 0 0 0 0 0 0 0 0 0 0 0 0 0 127 0" result="hardAlpha"/>
<feMorphology radius="0.318257" operator="dilate" in="SourceAlpha" result="effect1_dropShadow_211_2012"/>
<feOffset dy="0.190954"/>
<feComposite in2="hardAlpha" operator="out"/>
<feColorMatrix type="matrix" values="0 0 0 0 0.70624 0 0 0 0 0.7024 0 0 0 0 0.8176 0 0 0 1 0"/>
<feBlend mode="normal" in2="BackgroundImageFix" result="effect1_dropShadow_211_2012"/>
<feBlend mode="normal" in="SourceGraphic" in2="effect1_dropShadow_211_2012" result="shape"/>
</filter>
<linearGradient id="paint0_linear_211_2012" x1="64.4059" y1="74.8483" x2="64.4059" y2="80.1526" gradientUnits="userSpaceOnUse">
<stop stop-color="#F2E6D9"/>
<stop offset="1" stop-color="#FEF7F0"/>
</linearGradient>
<linearGradient id="paint1_linear_211_2012" x1="64.4059" y1="73.7875" x2="64.4059" y2="80.1526" gradientUnits="userSpaceOnUse">
<stop stop-color="#FEFCFB"/>
<stop offset="1" stop-color="#FEFCFB" stop-opacity="0"/>
</linearGradient>
<linearGradient id="paint2_linear_211_2012" x1="181.983" y1="135.71" x2="181.983" y2="141.014" gradientUnits="userSpaceOnUse">
<stop stop-color="#F2E6D9"/>
<stop offset="1" stop-color="#FEF7F0"/>
</linearGradient>
<linearGradient id="paint3_linear_211_2012" x1="181.983" y1="134.649" x2="181.983" y2="141.014" gradientUnits="userSpaceOnUse">
<stop stop-color="#FEFCFB"/>
<stop offset="1" stop-color="#FEFCFB" stop-opacity="0"/>
</linearGradient>
<linearGradient id="paint4_linear_211_2012" x1="299.559" y1="196.57" x2="299.559" y2="201.875" gradientUnits="userSpaceOnUse">
<stop stop-color="#F2E6D9"/>
<stop offset="1" stop-color="#FEF7F0"/>
</linearGradient>
<linearGradient id="paint5_linear_211_2012" x1="299.559" y1="195.51" x2="299.559" y2="201.875" gradientUnits="userSpaceOnUse">
<stop stop-color="#FEFCFB"/>
<stop offset="1" stop-color="#FEFCFB" stop-opacity="0"/>
</linearGradient>
<linearGradient id="paint6_linear_211_2012" x1="267.711" y1="-27.7877" x2="152.559" y2="194.674" gradientUnits="userSpaceOnUse">
<stop offset="0.00976562" stop-color="#FFF5EB" stop-opacity="0.64"/>
<stop offset="0.472656" stop-color="white" stop-opacity="0"/>
<stop offset="1" stop-color="#FFF5EB"/>
</linearGradient>
<linearGradient id="paint7_linear_211_2012" x1="46.2953" y1="-16.815" x2="386.405" y2="157.614" gradientUnits="userSpaceOnUse">
<stop stop-color="#FFF5EB" stop-opacity="0.93"/>
<stop offset="0.52" stop-color="#FFF5EB" stop-opacity="0"/>
<stop offset="1" stop-color="#FFF5EB"/>
</linearGradient>
<clipPath id="clip0_211_2012">
<rect width="387" height="268.229" fill="white" transform="translate(124.107 -171.293) rotate(27.3673)"/>
</clipPath>
</defs>
</svg>
